<?xml version="1.0" encoding="UTF-8"?>
<svg xmlns="http://www.w3.org/2000/svg" xmlns:xlink="http://www.w3.org/1999/xlink" width="98.371pt" height="29.143pt" viewBox="0 0 98.371 29.143" version="1.1">
<defs>
<clipPath id="clip1">
  <path d="M 20 23 L 22 23 L 22 29.144531 L 20 29.144531 Z M 20 23 "/>
</clipPath>
<clipPath id="clip2">
  <path d="M 48 23 L 50 23 L 50 29.144531 L 48 29.144531 Z M 48 23 "/>
</clipPath>
<clipPath id="clip3">
  <path d="M 77 23 L 78 23 L 78 29.144531 L 77 29.144531 Z M 77 23 "/>
</clipPath>
</defs>
<g id="surface1">
<g clip-path="url(#clip1)" clip-rule="nonzero">
<path style="fill:none;stroke-width:0.79701;stroke-linecap:butt;stroke-linejoin:miter;stroke:rgb(0%,0%,0%);stroke-opacity:1;stroke-miterlimit:10;" d="M 14.173844 0.0018125 L 14.173844 4.958844 " transform="matrix(1,0,0,-1,6.666,28.744)"/>
</g>
<path style="fill:none;stroke-width:0.79701;stroke-linecap:butt;stroke-linejoin:miter;stroke:rgb(0%,0%,0%);stroke-opacity:1;stroke-miterlimit:10;" d="M 14.173844 23.384625 L 14.173844 28.345563 " transform="matrix(1,0,0,-1,6.666,28.744)"/>
<path style="fill-rule:nonzero;fill:rgb(100%,100%,100%);fill-opacity:1;stroke-width:0.79701;stroke-linecap:butt;stroke-linejoin:miter;stroke:rgb(0%,0%,0%);stroke-opacity:1;stroke-miterlimit:10;" d="M 3.685563 23.384625 L 24.662125 23.384625 L 24.662125 4.958844 L 3.685563 4.958844 Z M 3.685563 23.384625 " transform="matrix(1,0,0,-1,6.666,28.744)"/>
<g clip-path="url(#clip2)" clip-rule="nonzero">
<path style="fill:none;stroke-width:0.79701;stroke-linecap:butt;stroke-linejoin:miter;stroke:rgb(0%,0%,0%);stroke-opacity:1;stroke-miterlimit:10;" d="M 42.5215 0.0018125 L 42.5215 4.958844 " transform="matrix(1,0,0,-1,6.666,28.744)"/>
</g>
<path style="fill:none;stroke-width:0.79701;stroke-linecap:butt;stroke-linejoin:miter;stroke:rgb(0%,0%,0%);stroke-opacity:1;stroke-miterlimit:10;" d="M 42.5215 23.384625 L 42.5215 28.345563 " transform="matrix(1,0,0,-1,6.666,28.744)"/>
<path style="fill-rule:nonzero;fill:rgb(100%,100%,100%);fill-opacity:1;stroke-width:0.79701;stroke-linecap:butt;stroke-linejoin:miter;stroke:rgb(0%,0%,0%);stroke-opacity:1;stroke-miterlimit:10;" d="M 32.033219 23.384625 L 53.009781 23.384625 L 53.009781 4.958844 L 32.033219 4.958844 Z M 32.033219 23.384625 " transform="matrix(1,0,0,-1,6.666,28.744)"/>
<g clip-path="url(#clip3)" clip-rule="nonzero">
<path style="fill:none;stroke-width:0.79701;stroke-linecap:butt;stroke-linejoin:miter;stroke:rgb(0%,0%,0%);stroke-opacity:1;stroke-miterlimit:10;" d="M 70.86525 0.0018125 L 70.86525 4.958844 " transform="matrix(1,0,0,-1,6.666,28.744)"/>
</g>
<path style="fill:none;stroke-width:0.79701;stroke-linecap:butt;stroke-linejoin:miter;stroke:rgb(0%,0%,0%);stroke-opacity:1;stroke-miterlimit:10;" d="M 70.86525 23.384625 L 70.86525 28.345563 " transform="matrix(1,0,0,-1,6.666,28.744)"/>
<path style="fill-rule:nonzero;fill:rgb(100%,100%,100%);fill-opacity:1;stroke-width:0.79701;stroke-linecap:butt;stroke-linejoin:miter;stroke:rgb(0%,0%,0%);stroke-opacity:1;stroke-miterlimit:10;" d="M 60.376969 23.384625 L 81.353531 23.384625 L 81.353531 4.958844 L 60.376969 4.958844 Z M 60.376969 23.384625 " transform="matrix(1,0,0,-1,6.666,28.744)"/>
</g>
</svg>
